<svg xmlns="http://www.w3.org/2000/svg" viewBox="0 0 660 560" width="660" height="560" role="img"><title>Conceptual world connectivity; no data-center location claims</title><defs><radialGradient id="glow"><stop stop-color="#266758" stop-opacity=".3"/><stop offset="1" stop-color="#101e2c" stop-opacity="0"/></radialGradient></defs><ellipse cx="345" cy="270" rx="310" ry="265" fill="url(#glow)"/><path d="M30 70 630 460M30 460 630 70" stroke="#365264" stroke-width=".7" opacity=".23"/><path d="M90 70 615 460M90 460 615 70" stroke="#365264" stroke-width=".7" opacity=".23"/><path d="M150 70 600 460M150 460 600 70" stroke="#365264" stroke-width=".7" opacity=".23"/><path d="M210 70 585 460M210 460 585 70" stroke="#365264" stroke-width=".7" opacity=".23"/><path d="M270 70 570 460M270 460 570 70" stroke="#365264" stroke-width=".7" opacity=".23"/><path d="M330 70 555 460M330 460 555 70" stroke="#365264" stroke-width=".7" opacity=".23"/><path d="M390 70 540 460M390 460 540 70" stroke="#365264" stroke-width=".7" opacity=".23"/><path d="M450 70 525 460M450 460 525 70" stroke="#365264" stroke-width=".7" opacity=".23"/><path d="M510 70 510 460M510 460 510 70" stroke="#365264" stroke-width=".7" opacity=".23"/><g fill="#23414b" stroke="#436473" stroke-width="1.2"><path d="m72 162 55-40 45 10 32-18 55 21 9 28-49 12-16 30-45 16-7 27-36-14-9-42-38-10Z"/><path d="m192 258 46 14 21 39-17 65-29 47-21-30 7-41-29-48Z"/><path d="m296 151 43-21 28 15 43-18 81 10 72 35-6 32-62 10-13 33-47-3-24-40-23 1-7 37-26 17-19-26-32-20-21 14-16-38Z"/><path d="m310 234 49 5 31 34-15 62-26 34-27-30-7-42-28-26Z"/><path d="m477 340 49-14 47 28-12 26-66 7-29-21Z"/></g><g fill="none" stroke="#a7e0c1" opacity=".55"><path d="M95 205Q295 12 551 235M95 205Q225 420 511 358M185 360Q220 155 450 173" stroke-dasharray="4 8"/></g><g transform="translate(327,240)"><ellipse cx="0" cy="65" rx="92" ry="32" fill="#08121a" opacity=".45"/>
 <path d="m-80-5 80-45 80 45v40L0 80l-80-45Z" fill="#132b37" stroke="#68b996" stroke-width="1"/>
 <path d="m-80-5 80 45 80-45M0 40v40" fill="none" stroke="#68b996"/>
 <path d="m-80-5 80-45 80 45L0 40Z" fill="#28483f" stroke="#68b996"/>
 <path d="m-60 22 27 15m-27-7 15 8" stroke="#6b8b9a" stroke-width="2"/>
 <g transform="translate(-24,-27)"><g fill="none" stroke="#b4f2cd" stroke-width="1.8" stroke-linecap="round" stroke-linejoin="round"><path d="M14 35h22a8 8 0 0 0 1-16 13 13 0 0 0-25-2 9 9 0 0 0 2 18Z"/><path d="m19 26 5-5 5 5m-5-5v18"/></g></g><circle cx="53" cy="30" r="3" fill="#b4f2cd"/>
 <text x="0" y="109" text-anchor="middle" fill="#b2c8d2" font-size="10" font-family="DejaVu Sans,Arial,sans-serif" letter-spacing="1.4">CONNECTED INFRASTRUCTURE</text></g><text x="330" y="495" text-anchor="middle" fill="#a4b8c3" font-family="DejaVu Sans,Arial,sans-serif" font-size="10" letter-spacing="2">CONCEPTUAL NETWORK · NOT DATA CENTER LOCATIONS</text></svg>
